<?xml version="1.0" encoding="iso-8859-1"?>
<!-- Uploaded to: SVG Repo, www.svgrepo.com, Generator: SVG Repo Mixer Tools -->
<svg  height="800px" width="800px" version="1.1" id="Layer_1" xmlns="http://www.w3.org/2000/svg" xmlns:xlink="http://www.w3.org/1999/xlink" 
	 viewBox="0 0 512 512" xml:space="preserve">
<g>
	<g>
		<path d="M170.667,170.667c-11.776,0-21.333,9.557-21.333,21.333s9.557,21.333,21.333,21.333S192,203.776,192,192
			S182.443,170.667,170.667,170.667z"/>
	</g>
</g>
<g>
	<g>
		<path d="M341.333,170.667C329.557,170.667,320,180.224,320,192s9.557,21.333,21.333,21.333s21.333-9.557,21.333-21.333
			S353.109,170.667,341.333,170.667z"/>
	</g>
</g>
<g>
	<g>
		<path d="M256,0C114.837,0,0,114.837,0,256s114.837,256,256,256s256-114.837,256-256S397.163,0,256,0z M341.333,277.333
			C294.272,277.333,256,239.061,256,192c0,47.061-38.272,85.333-85.333,85.333c-47.061,0-85.334-38.272-85.334-85.333
			c0-47.061,38.272-85.333,85.333-85.333C217.727,106.667,256,144.939,256,192c0-47.061,38.272-85.333,85.333-85.333
			c47.061,0,85.333,38.272,85.333,85.333C426.666,239.061,388.395,277.333,341.333,277.333z"/>
	</g>
</g>
</svg>